<svg version="1.2" xmlns="http://www.w3.org/2000/svg" viewBox="0 0 512 512" width="512" height="512">
	<title>file</title>
	<style>
		.s0 { fill: #000000 } 
	</style>
	<path id="Path 0" class="s0" d="m58 1.9c-3.6 1-9 2.8-12 4.1-3 1.3-8.4 4.2-12 6.6-3.6 2.3-9.2 7.1-12.6 10.6-3.4 3.4-7.7 8.8-9.6 11.8-1.9 3-4.7 8.4-6.1 12-1.5 3.6-3.4 9.6-4.2 13.5-1.3 6-1.5 34-1.5 196 0 163.8 0.2 189.9 1.5 195.5 0.8 3.6 2.7 9.4 4.2 13 1.5 3.6 4.2 9 6.1 12 1.9 3 6.2 8.4 9.6 11.8 3.4 3.5 9 8.3 12.6 10.6 3.6 2.4 9 5.3 12 6.6 3 1.3 8.6 3.1 12.5 4.1 6.5 1.7 12.7 1.9 87.3 1.9h80.2v-181h-60v-90h60c0.6-73.1 0.8-76 2.8-83.5 1.3-4.4 4.2-12.1 6.7-17 2.4-4.9 7.1-12.4 10.4-16.5 3.3-4.1 9.5-10.3 13.8-13.8 4.3-3.5 11.9-8.3 16.8-10.7 4.9-2.5 12.6-5.5 17-6.7 7.7-2.1 9.7-2.2 60.8-2.5l52.7-0.3v90h-91v61h91c-0.8 4.3-3.9 23.3-7.5 45-3.6 21.7-6.7 40.7-7 42.3l-0.5 2.7h-76v181c125.3 0 131.1-0.2 137.5-1.9 3.9-1 9.5-2.8 12.5-4.1 3-1.3 8.4-4.2 12-6.6 3.6-2.3 9.2-7.1 12.6-10.6 3.4-3.4 7.7-8.8 9.6-11.8 1.9-3 4.7-8.4 6.1-12 1.5-3.6 3.4-9.6 4.2-13.5 1.3-6 1.5-34 1.5-196 0-163.8-0.2-189.9-1.5-195.5-0.8-3.6-2.7-9.4-4.2-13-1.4-3.6-4.5-9.4-6.9-13-2.3-3.6-7.1-9.2-10.6-12.6-3.4-3.4-8.8-7.7-11.8-9.6-3-1.9-8-4.5-11-5.8-3-1.3-8.6-3.1-12.5-4.1-6.7-1.8-15.9-1.9-198-1.8-178.8 0.1-191.4 0.2-197.5 1.8z"/>
</svg>